<?xml version="1.0" encoding="utf-8"?>
<!-- Generator: Adobe Illustrator 23.0.2, SVG Export Plug-In . SVG Version: 6.00 Build 0)  -->
<svg version="1.1" id="Layer_1" xmlns="http://www.w3.org/2000/svg" xmlns:xlink="http://www.w3.org/1999/xlink" x="0px" y="0px"
	 viewBox="0 0 594.38 94.08" style="enable-background:new 0 0 594.38 94.08;" xml:space="preserve">
<style type="text/css">
	.st0{fill:#5DA7E5;}
	.st1{fill:#828386;}
</style>
<g>
	<g>
		<path class="st0" d="M40.06,61.73c-0.44,1.44-3.11,5.1-3.11,5.1l3.11-0.63l0.59-4.18L40.06,61.73z"/>
		<path class="st0" d="M7.97,30.05c0.63,0.55,0.96,0.78,2.11,2.51s2.99,2.74,3.99,3.66c1,0.92,2.62,3.73,4.95,4.92
			c2.33,1.18,3.73,3.29,3.73,3.29s3.88,1.11,7.54,2.29c3.66,1.18,6.73,2.07,12.16-1.59c5.43-3.66,6.73-6.95,8.47-10.02
			c-2.11-2.11-1.4-2.96-3.07-5.62c-1.66-2.66-2.7-3.4-3.96-4.03s-2.18-1.74-6.21-5.66c-4.03-3.92-2.96-1.48-5.95-4.36
			s-7.1-7.54-7.95-8.47c-0.14-0.15-0.3-0.34-0.48-0.55c-7.76,4.55-14.1,11.25-18.19,19.29C5.95,27.11,7.51,29.65,7.97,30.05z"/>
		<path class="st0" d="M44.53,88.65c0.33-0.41,1.04-4.84,2.03-5.1c1-0.26,4.07-0.22,4.44-0.33c0.37-0.11,1.07-1.22,1.07-1.22
			s-5.1-5.03-5.8-6.06c-0.7-1.04-1.63-3.84-2.29-4.51c-0.67-0.67-3.18-2.92-3.18-2.92s-2.48,0.7-5.92,1.22
			c-5.51,7.95-6.77,7.28-8.5,9.69c-2.77,3.8-4.16,5.98-4.84,7.15c5.33,3.45,11.41,5.85,17.93,6.91
			C41.05,91.99,44.28,88.95,44.53,88.65z"/>
		<path class="st0" d="M31.29,70.16c-0.44,0.07-5.43,1.55-5.92,2.4c-0.48,0.85-2.11,2.26-3.73,4.99s-1.18,4.7-1.81,5.58
			c-0.3,0.43-0.73,0.99-1.1,1.47c0.19,0.15,0.39,0.29,0.59,0.43c1.87-2.75,5.61-7.74,6.9-8.85C27.82,74.82,31.11,71.16,31.29,70.16z
			"/>
		<path class="st0" d="M55.73,81.48c0.59,0.48,1.44,1.22,1.92,2.33s2.22,3.99,2.22,3.99l6.5,2.12c5.16-2.33,9.83-5.56,13.8-9.5
			c-1.48-1.19-4.38-3.5-5.25-3.9c-1.18-0.55-7.47-2.55-9.57-2.99c-5.4-1.07-6.47-1.92-6.47-1.92s-0.37,2.88-0.96,5.88
			S56.51,80.59,55.73,81.48z"/>
		<path class="st0" d="M78.84,72.6c-2.59,0.15-3.62-0.74-8.1-1.52c-4.47-0.78-6.91-0.92-12.61-2.48c1.4,1.4,6.51,2.33,9.65,3.07
			s8.06,2.59,9.46,3.51c1.02,0.67,3.49,2.37,4.79,3.27c1.8-2.01,3.43-4.17,4.87-6.47C84.66,72.18,80.65,72.5,78.84,72.6z"/>
		<path class="st0" d="M90.78,42.14c1.28,0.66,2.34,1.09,3.16,1.39c-0.19-2.56-0.58-5.06-1.16-7.5l-9.5,2.11
			C83.27,38.15,87.52,40.48,90.78,42.14z"/>
		<path class="st0" d="M25.62,5.37c0,0,5.95,6.19,7.39,7.8s3.68,2.5,4.75,3.44c1.07,0.94,3.72,3.38,5.53,5.25s2.38,1.31,4.58,3.57
			c2.2,2.26,4.51,7.52,4.51,7.52s5.1-13.33,5.58-14.66s1.04-1.53,1.52-2.64s2.46-5.64,2.46-5.64l-7.55-9.44C52,0.2,49.54,0,47.04,0
			C39.27,0,31.96,1.89,25.5,5.23L25.62,5.37z"/>
		<path class="st0" d="M65.82,10.01c-0.55,0.59-0.74,0.96-1.22,2c-0.48,1.04-1.07,2.59-2,4.58c-0.92,2-0.26,1.85-0.85,3.22
			c-0.59,1.37-5.66,15.05-5.66,15.05s9.54,1.81,12.13,2.29s4.21-1.18,8.06-1c3.84,0.18,3.55,0.07,8.21-0.81
			c3.04-0.58,5.95-1.35,7.61-1.81C88.52,21.57,80.32,11.62,69.57,5.74C68.33,7.17,66.21,9.6,65.82,10.01z"/>
		<path class="st0" d="M58.42,1.39l4.85,6.51l3.09-3.75C63.82,3.01,61.17,2.08,58.42,1.39z"/>
		<path class="st0" d="M30,52.31c2.07-0.41,3.03-1.29,0.72-2.06c-2.31-0.77-8.63-2.63-8.63-2.63s-2.96,1.22-4.25,1.7
			c-1.29,0.48-3.96,0.78-5.1,0.92c-1.15,0.15-2.55-2.26-2.92-2.51s-1.77,1-2.51,0.96c-0.74-0.04-2.07-0.7-2.7-0.67
			c-0.51,0.03-3.41,1.46-4.5,2.01c0.01,0.23,0.03,0.46,0.05,0.69c0.43-0.25,1.14-0.59,1.9-0.59c1.18,0,1.4,0.41,5.1,0.78
			s6.21,1.33,7.91,1.77c1.7,0.44,4.47,2.44,4.47,2.44S27.93,52.71,30,52.31z"/>
		<path class="st0" d="M4.27,45.32c0.48-0.04,2.29,0.7,2.88,0.74c0.59,0.04,2.33-1.29,2.99-1.26c0.67,0.04,1.52,1.29,2.88,2.7
			c4.36-0.18,5.25-0.89,7.36-1.74c-0.26-1.15-2.22-2.33-3.96-3.33s-2.44-2.51-4.21-4.44c-1.77-1.92-1.96-1.37-3.03-2.48
			c-1.07-1.11-0.92-1.52-1.55-2.33c-0.63-0.81-1.44-1.29-2.29-2.51c-0.53-0.75-1.13-1.65-1.52-2.22C1.36,34.16,0,40.44,0,47.04
			c0,0.07,0.01,0.14,0.01,0.21C1.15,46.69,3.89,45.35,4.27,45.32z"/>
		<path class="st0" d="M18.28,79.44c0.22-1,0.92-3.18,2.92-5.43s0.44-1.55,3.36-3.99c6.4-2.81,9.09-2.62,9.09-2.62s1.37-2,3.36-5.06
			c2-3.07,1.18-2.55,1.07-4.47c-0.11-1.92-0.55-2.51-2.29-2.74C34.07,54.89,33,54.01,33,54.01s-9.24,2.85-13.01,3.48
			c-2.81,4.14-5.36,3.29-5.36,3.29s-1.04,3.92-1.07,7.06c-0.04,3.14-1.29,2.77-2.33,4.99c-0.62,1.32-0.93,2.57-1.08,3.37
			c1.99,2.51,4.22,4.82,6.67,6.88C18,81.47,18.1,80.27,18.28,79.44z"/>
		<path class="st0" d="M57.73,88.98c0,0-2.59-4.7-3.59-5.55c-1.59,1.92-1.89,5.99-2.11,7.5c-0.13,0.89-0.22,2.07-0.27,2.9
			c1.59-0.16,3.15-0.39,4.69-0.71L57.73,88.98z"/>
		<path class="st0" d="M7.65,72.75c0.24,0.37,0.49,0.74,0.75,1.11c0.27-2.82,2.6-4.88,2.6-4.88l0.15-1.66c0,0-1.52,0.89-2.51,1.77
			C8.48,69.9,7.98,71.66,7.65,72.75z"/>
		<path class="st0" d="M50.48,85.73c-0.15-0.11-2.33,0-2.59,0.22c-0.26,0.22-0.63,3.22-1.4,4.1c-0.56,0.64-2.68,2.72-3.8,3.82
			c1.43,0.13,2.88,0.21,4.35,0.21c0.78,0,1.55-0.02,2.32-0.06C49.57,89.31,50.62,85.83,50.48,85.73z"/>
		<path class="st0" d="M82.05,40.25c-2.99-1.77-2.29-1.33-5.03-1.52c-2.74-0.18-6.47,1.07-7.62,1.15c-1.15,0.07-8.24-1.55-13.9-2.59
			c-5.14,7.25-5.95,13.2-5.32,15.71c0.63,2.51,0.22,4.88,0,5.73c0.52,0.44,1.37,1.89,3.29,4.55c1.92,2.66,5.58,3.29,11.53,4.25
			s10.68,2.4,13.6,2.4c2.18,0,7.37-0.43,9.88-0.65c3.56-6.63,5.59-14.2,5.59-22.25c0-0.23-0.01-0.45-0.02-0.67
			C90.12,44.76,84.62,41.78,82.05,40.25z"/>
		<path class="st0" d="M55.36,69.94c-0.92-0.44-2.55-0.81-4.14-2.4s-2.33-2.22-2.88-3.59c-0.55-1.37-0.86-2.6-1.3-2.55
			c-1.22,0.15-1.77,0.22-2.44-0.22c-0.7,0-1.52,0.33-1.63,1.37c-0.11,1.04-0.48,4.29-0.48,4.29s2.55,1.96,3.55,3.11
			s1.77,3.44,2.18,4.33s4.18,4.77,5.51,5.84c1.37-1.59,1.29-1.44,1.7-3.48c0.41-2.03,1.15-3.51,0.67-5.47
			C56.03,70.64,56.29,70.38,55.36,69.94z"/>
		<path class="st0" d="M59.28,92.46c1.15-0.31,2.28-0.66,3.39-1.05l-2.87-1.14L59.28,92.46z"/>
		<path class="st0" d="M5.24,68.61c0.36,0.69,0.73,1.36,1.11,2.03c0.26-0.69,0.57-1.66,0.24-1.77C6.38,68.79,5.78,68.69,5.24,68.61z
			"/>
		<path class="st0" d="M11.66,62.58c0.78-3.96,0.81-4.29,2.7-4.21c1.89,0.07,3.07-1.74,3.07-1.74s-4.92-2.81-8.61-3.07
			c-3.7-0.26-5.58-0.96-6.4-0.92c-0.55,0.03-1.46,0.42-1.99,0.67c0.63,4.7,1.95,9.18,3.85,13.33l3.09,0.19c0,0,1.29-0.89,2.77-1.85
			S11.41,64.25,11.66,62.58z"/>
	</g>
	<g>
		<path class="st0" d="M118.28,67.99V23.91h12.56c4.02,0,7.04,0.98,9.07,2.94c2.03,1.96,3.04,4.89,3.04,8.81
			c0,2.06-0.51,3.88-1.54,5.45s-2.42,2.8-4.18,3.66c2.02,0.61,3.62,1.85,4.8,3.72c1.18,1.88,1.77,4.14,1.77,6.78
			c0,3.96-1.08,7.06-3.25,9.32c-2.17,2.26-5.26,3.39-9.28,3.39H118.28z M123.82,42.71h7.11c1.92,0,3.47-0.65,4.65-1.94
			c1.18-1.29,1.77-3.01,1.77-5.16c0-2.43-0.54-4.19-1.6-5.29c-1.07-1.1-2.71-1.65-4.9-1.65h-7.02V42.71z M123.82,47.38v15.86h7.57
			c2.1,0,3.76-0.69,5-2.07c1.23-1.38,1.85-3.32,1.85-5.83c0-5.31-2.24-7.96-6.72-7.96H123.82z"/>
		<path class="st0" d="M157.76,67.99h-5.54V23.91h5.54V67.99z"/>
		<path class="st0" d="M195.24,53.98c-0.24,4.72-1.57,8.34-3.98,10.85c-2.41,2.51-5.82,3.77-10.22,3.77
			c-4.42,0-7.93-1.68-10.54-5.04s-3.91-7.92-3.91-13.67V41.9c0-5.73,1.34-10.26,4.01-13.59c2.67-3.33,6.32-5,10.94-5
			c4.26,0,7.55,1.27,9.88,3.81c2.33,2.54,3.6,6.19,3.8,10.93h-5.6c-0.24-3.59-1-6.16-2.27-7.69c-1.27-1.53-3.21-2.3-5.81-2.3
			c-3.01,0-5.32,1.18-6.93,3.53c-1.62,2.35-2.42,5.8-2.42,10.34v8.08c0,4.46,0.75,7.88,2.25,10.26c1.5,2.38,3.7,3.57,6.58,3.57
			c2.89,0,4.96-0.72,6.24-2.15c1.27-1.43,2.06-4.01,2.36-7.72H195.24z"/>
		<path class="st0" d="M229.74,53.98c-0.24,4.72-1.57,8.34-3.98,10.85c-2.41,2.51-5.82,3.77-10.22,3.77
			c-4.42,0-7.93-1.68-10.54-5.04s-3.91-7.92-3.91-13.67V41.9c0-5.73,1.34-10.26,4.01-13.59c2.67-3.33,6.32-5,10.94-5
			c4.26,0,7.55,1.27,9.88,3.81c2.33,2.54,3.6,6.19,3.8,10.93h-5.6c-0.24-3.59-1-6.16-2.27-7.69c-1.27-1.53-3.21-2.3-5.81-2.3
			c-3.01,0-5.32,1.18-6.93,3.53c-1.62,2.35-2.42,5.8-2.42,10.34v8.08c0,4.46,0.75,7.88,2.25,10.26c1.5,2.38,3.7,3.57,6.58,3.57
			c2.89,0,4.96-0.72,6.24-2.15c1.27-1.43,2.06-4.01,2.36-7.72H229.74z"/>
		<path class="st0" d="M266.16,67.99h-5.57l-17.65-33.97v33.97h-5.57V23.91h5.57l17.71,34.12V23.91h5.51V67.99z"/>
		<path class="st1" d="M293.65,73.17h-3.06V20.91h3.06V73.17z"/>
		<path class="st1" d="M344.45,54.25c-0.32,4.94-1.66,8.57-4,10.88c-2.34,2.31-5.58,3.47-9.72,3.47c-4.26,0-7.62-1.61-10.08-4.83
			c-2.46-3.22-3.7-7.59-3.72-13.12v-9.57c0-5.55,1.26-9.9,3.77-13.05c2.51-3.15,5.95-4.72,10.31-4.72c4.12,0,7.31,1.18,9.57,3.54
			c2.26,2.36,3.55,5.98,3.88,10.87h-3.51c-0.32-4-1.27-6.85-2.83-8.57c-1.56-1.72-3.93-2.57-7.1-2.57c-3.33,0-5.92,1.24-7.78,3.72
			c-1.86,2.48-2.79,6.08-2.79,10.81v9.45c0,4.68,0.9,8.33,2.69,10.93c1.8,2.6,4.33,3.91,7.6,3.91c3.43,0,5.91-0.86,7.45-2.57
			c1.53-1.72,2.45-4.57,2.75-8.57H344.45z"/>
		<path class="st1" d="M362.56,68.6c-3.86,0-6.87-1.26-9.05-3.78c-2.18-2.52-3.29-6.12-3.33-10.78v-4c0-4.8,1.05-8.57,3.15-11.31
			c2.1-2.73,4.98-4.1,8.66-4.1c3.55,0,6.26,1.16,8.13,3.48c1.87,2.32,2.82,5.87,2.86,10.66v3.15h-19.47v1.85
			c0,3.75,0.8,6.65,2.41,8.69c1.61,2.04,3.87,3.06,6.8,3.06c3.23,0,5.84-1.18,7.84-3.54l1.76,2.24
			C370.17,67.13,366.92,68.6,362.56,68.6z M361.98,37.78c-2.64,0-4.68,0.93-6.1,2.8c-1.42,1.87-2.21,4.6-2.35,8.19h16.08v-0.88
			C369.45,41.15,366.91,37.78,361.98,37.78z"/>
		<path class="st1" d="M383.75,67.99h-3.39v-46.5h3.39V67.99z"/>
		<path class="st1" d="M397.42,67.99h-3.39v-46.5h3.39V67.99z"/>
		<path class="st1" d="M424.84,64.78h18.16v3.21h-21.65V23.91h3.48V64.78z"/>
		<path class="st1" d="M446.77,49.95c0-4.72,1.07-8.46,3.21-11.2c2.14-2.74,5.06-4.12,8.75-4.12c3.71,0,6.63,1.35,8.76,4.06
			c2.13,2.7,3.2,6.43,3.22,11.17v3.48c0,4.8-1.08,8.55-3.22,11.23c-2.15,2.68-5.05,4.03-8.7,4.03c-3.65,0-6.55-1.31-8.69-3.94
			c-2.14-2.62-3.25-6.24-3.33-10.84V49.95z M450.16,53.32c0,3.77,0.76,6.73,2.29,8.89c1.52,2.16,3.64,3.24,6.34,3.24
			c2.76,0,4.88-1.04,6.34-3.11c1.46-2.08,2.2-5.05,2.22-8.92v-3.48c0-3.77-0.77-6.74-2.3-8.91c-1.53-2.17-3.64-3.25-6.33-3.25
			c-2.6,0-4.67,1.06-6.21,3.18c-1.53,2.12-2.32,5.03-2.36,8.74V53.32z"/>
		<path class="st1" d="M487.88,65.45c2.34,0,4.14-0.65,5.39-1.96c1.25-1.31,1.93-3.19,2.03-5.64h3.24
			c-0.16,3.35-1.23,5.98-3.21,7.89c-1.98,1.91-4.46,2.86-7.45,2.86c-3.9,0-6.84-1.25-8.82-3.74c-1.99-2.49-3-6.19-3.04-11.1v-4
			c0-5,0.99-8.78,2.98-11.32c1.99-2.54,4.94-3.81,8.85-3.81c3.25,0,5.81,1.02,7.69,3.07c1.88,2.05,2.88,4.91,3,8.58h-3.24
			c-0.1-2.7-0.79-4.8-2.06-6.28s-3.07-2.23-5.39-2.23c-2.91,0-5.04,0.98-6.4,2.93c-1.36,1.96-2.04,4.96-2.04,9.01v3.72
			c0,4.19,0.69,7.24,2.06,9.15C482.84,64.5,484.98,65.45,487.88,65.45z"/>
		<path class="st1" d="M523.53,67.99c-0.3-1.05-0.5-2.56-0.61-4.54c-1.01,1.63-2.31,2.9-3.89,3.8c-1.58,0.9-3.3,1.35-5.16,1.35
			c-2.83,0-5.03-0.8-6.6-2.39c-1.57-1.59-2.36-3.86-2.36-6.81c0-3.21,1.09-5.75,3.28-7.63c2.19-1.88,5.21-2.83,9.07-2.85h5.63v-4.57
			c0-2.34-0.58-4.02-1.74-5.04c-1.16-1.02-2.86-1.53-5.1-1.53c-2.08,0-3.78,0.61-5.12,1.82s-2,2.78-2,4.69l-3.36-0.03
			c0-2.68,1.01-4.96,3.03-6.83c2.02-1.87,4.55-2.8,7.6-2.8c3.29,0,5.78,0.83,7.48,2.48c1.7,1.66,2.54,4.07,2.54,7.24v16.08
			c0,3.21,0.29,5.61,0.88,7.21v0.36H523.53z M514.3,65.36c1.98,0,3.73-0.51,5.25-1.54c1.52-1.03,2.64-2.4,3.34-4.12v-7.96h-5.33
			c-3.07,0.04-5.38,0.72-6.93,2.04c-1.55,1.32-2.33,3.1-2.33,5.34C508.3,63.28,510.3,65.36,514.3,65.36z"/>
		<path class="st1" d="M539.25,26.88v8.36h5.6v3.03h-5.6v21.77c0,1.8,0.27,3.13,0.8,4.01c0.54,0.88,1.43,1.32,2.68,1.32
			c0.54,0,1.35-0.1,2.42-0.3l0.09,3.03c-0.77,0.34-1.87,0.51-3.3,0.51c-3.94,0-5.95-2.7-6.05-8.11V38.26h-5.06v-3.03h5.06v-8.36
			H539.25z"/>
		<path class="st1" d="M549.85,49.95c0-4.72,1.07-8.46,3.21-11.2c2.14-2.74,5.06-4.12,8.75-4.12c3.71,0,6.63,1.35,8.76,4.06
			c2.13,2.7,3.2,6.43,3.22,11.17v3.48c0,4.8-1.08,8.55-3.22,11.23c-2.15,2.68-5.05,4.03-8.7,4.03c-3.65,0-6.55-1.31-8.69-3.94
			c-2.14-2.62-3.25-6.24-3.33-10.84V49.95z M553.24,53.32c0,3.77,0.76,6.73,2.29,8.89c1.52,2.16,3.64,3.24,6.34,3.24
			c2.76,0,4.88-1.04,6.34-3.11c1.46-2.08,2.2-5.05,2.22-8.92v-3.48c0-3.77-0.77-6.74-2.3-8.91c-1.53-2.17-3.64-3.25-6.33-3.25
			c-2.6,0-4.67,1.06-6.21,3.18c-1.53,2.12-2.32,5.03-2.36,8.74V53.32z"/>
		<path class="st1" d="M594.32,38.38c-0.81-0.14-1.51-0.21-2.12-0.21c-1.86,0-3.42,0.64-4.68,1.91c-1.26,1.27-2.15,3.04-2.68,5.3
			v22.61h-3.36V35.24h3.3l0.06,4.9c1.59-3.67,4.1-5.51,7.51-5.51c0.89,0,1.56,0.13,2.03,0.39L594.32,38.38z"/>
	</g>
</g>
</svg>
